# xmcd
#
# Track frame offsets:
#	150
#	10287
#	23307
#	33640
#	43432
#	54357
#	66187
#	84920
#	98402
#	112742
#
# Disc length: 1743
#
# Revision: 1
# Processed by: cddbd v1.5.1PL0 Copyright (c) Steve Scherf et al.
# Submitted via: dBpowerAMP V4.0
# Normalized: r0:TSWAP
#
DISCID=6c06cd0a
DTITLE=Various Artist - Roadrunner
DYEAR=1900
DGENRE=Country
TTITLE0=DAVE DUDLEY - Truck Drivin' Son of a Gun
TTITLE1=JONNY CARVER - Tie a Yellow Ribbon Round The Old Oak Tree
TTITLE2=WARNER MAC - The Bridge Washed Out
TTITLE3=RED SOVINE - King of The Open Road
TTITLE4=WILBERT HARRISON - Kansas City
TTITLE5=STANLEY BROTHERS - How Far to Little Rock
TTITLE6=TOMMY HILL'S MUSIC FESTIVAL - White Knight
TTITLE7=TINY HARRIS - Endless Black Ribbon
TTITLE8=BILLY WALKER - Way Out on a Moutain
TTITLE9=MINNE PEARL - Giddy-up -go Answer
EXTD=
EXTT0=
EXTT1=
EXTT2=
EXTT3=
EXTT4=
EXTT5=
EXTT6=
EXTT7=
EXTT8=
EXTT9=
PLAYORDER=
